{"title":"Pirates of the Caribbean-3 At World's End (2007) 1080p Blu-Ray x","uid":15897021,"size":4577240957,"categoryP":"video","categoryS":"hd___movies","magnet":"?xt=urn:btih:c4a43c30ddc3d630cf852f8b0d11126ebf380df6&amp;dn=Pirates+of+the+Caribbean-3+At+World%27s+End+%282007%29+1080p+Blu-Ray+x&amp;tr=udp%3A%2F%2Ftracker.leechers-paradise.org%3A6969&amp;tr=udp%3A%2F%2Fzer0day.ch%3A1337&amp;tr=udp%3A%2F%2Fopen.demonii.com%3A1337&amp;tr=udp%3A%2F%2Ftracker.coppersurfer.tk%3A6969&amp;tr=udp%3A%2F%2Fexodus.desync.com%3A6969","seeders":16,"leechers":63,"uploader":"SaM","files":3,"time":1474821776,"description":"1080p Blu-ray Rip x264\r\n\r\nEnglish AAC 5.1 Audio\r\n\r\nHindi DDS 5.1 Audio\r\n\r\nEnglish &amp; French Subtitle\r\n\r\n \nhttps://extraimago.com/image/w9AY \nhttps://extraimago.com/image/w9AC \nhttps://extraimago.com/image/w9AB \nhttps://extraimago.com/image/w9A4 \nhttps://extraimago.com/image/w9Ae \nhttps://extraimago.com/image/w9AZ \nhttps://extraimago.com/image/w9AK \nhttps://extraimago.com/image/w9AJ \nhttps://extraimago.com/image/w9A0 \nhttps://extraimago.com/image/w9Az \nhttps://extraimago.com/image/w9AU\r\n\r\nSpecs:\r\nSource: French BD50 @ DDR\r\n\r\nFormat : Matroska\r\nFormat version : Version 4 / Version 2\r\nFile size : 4.25 GiB\r\nDuration : 2 h 48 min\r\nOverall bit rate : 3 607 kb/s\r\n\r\nVideo\r\nID : 1\r\nFormat : AVC\r\nFormat/Info : Advanced Video Codec\r\nFormat profile :   \r\nFormat settings, CABAC : Yes\r\nFormat settings, ReFrames : 5 frames\r\nCodec ID : V_MPEG4/ISO/AVC\r\nDuration : 2 h 48 min\r\nBit rate : 3 187 kb/s\r\nWidth : 1 920 pixels\r\nHeight : 800 pixels\r\nDisplay aspect ratio : 2.40:1\r\nFrame rate mode : Constant\r\nFrame rate : 23.976 (24000/1001) FPS\r\nColor space : YUV\r\nChroma subsampling : 4:2:0\r\nBit depth : 8 bits\r\nScan type : Progressive\r\nBits/(Pixel*Frame) : 0.087\r\nStream size : 3.75 GiB (88%)\r\nLanguage : English\r\nDefault : Yes\r\nForced : No\r\nColor range : Limited\r\nColor primaries : BT.709\r\nTransfer characteristics : BT.709\r\nMatrix coefficients : BT.709\r\n\r\nAudio #1\r\nID : 2\r\nFormat : AC-3\r\nFormat/Info : Audio Coding 3\r\nMode extension : CM (complete main)\r\nFormat settings, Endianness : Big\r\nCodec ID : A_AC3\r\nDuration : 2 h 48 min\r\nBit rate mode : Constant\r\nBit rate : 224 kb/s\r\nChannel(s) : 6 channels\r\nChannel positions : Front: L C R, Side: L R, LFE\r\nSampling rate : 48.0 kHz\r\nFrame rate : 31.250 FPS (1536 spf)\r\nCompression mode : Lossy\r\nStream size : 270 MiB (6%)\r\nLanguage : Hindi\r\nDefault : Yes\r\nForced : No\r\n\r\nAudio #2\r\nID : 3\r\nFormat : AAC\r\nFormat/Info : Advanced Audio Codec\r\nFormat profile : LC\r\nCodec ID : A_AAC\r\nDuration : 2 h 48 min\r\nBit rate : 192 kb/s\r\nChannel(s) : 6 channels\r\nChannel positions : Front: L C R, Side: L R, LFE\r\nSampling rate : 48.0 kHz\r\nFrame rate : 46.875 FPS (1024 spf)\r\nCompression mode : Lossy\r\nDelay relative to video : 9 ms\r\nStream size : 231 MiB (5%)\r\nLanguage : English\r\nDefault : No\r\nForced : No","torrent":{"xt":"urn:btih:c4a43c30ddc3d630cf852f8b0d11126ebf380df6","amp;dn":"Pirates+of+the+Caribbean-3+At+World%27s+End+%282007%29+1080p+Blu-Ray+x","amp;tr":["udp%3A%2F%2Ftracker.leechers-paradise.org%3A6969","udp%3A%2F%2Fzer0day.ch%3A1337","udp%3A%2F%2Fopen.demonii.com%3A1337","udp%3A%2F%2Ftracker.coppersurfer.tk%3A6969","udp%3A%2F%2Fexodus.desync.com%3A6969"],"infoHash":"c4a43c30ddc3d630cf852f8b0d11126ebf380df6","infoHashBuffer":{"type":"Buffer","data":[196,164,60,48,221,195,214,48,207,133,47,139,13,17,18,110,191,56,13,246]},"announce":[],"urlList":[]}}